<svg xmlns="http://www.w3.org/2000/svg" xmlns:xlink="http://www.w3.org/1999/xlink" width="1060" zoomAndPan="magnify" viewBox="0 0 794.88 149.999998" height="200" preserveAspectRatio="xMidYMid meet" version="1.0"><defs><g/><clipPath id="9bc3847c70"><path d="M 281.203125 2.710938 L 791.742188 2.710938 L 791.742188 147.289062 L 281.203125 147.289062 Z M 281.203125 2.710938 " clip-rule="nonzero"/></clipPath><clipPath id="e908296b87"><path d="M 356.421875 2.710938 L 784.382812 2.710938 C 786.660156 2.710938 788.785156 3.878906 790.003906 5.804688 C 791.226562 7.730469 791.378906 10.144531 790.40625 12.207031 L 731.242188 137.792969 C 728.511719 143.589844 722.679688 147.289062 716.269531 147.289062 L 288.3125 147.289062 C 286.03125 147.289062 283.910156 146.121094 282.6875 144.195312 C 281.46875 142.269531 281.316406 139.855469 282.289062 137.792969 L 341.449219 12.207031 C 344.183594 6.410156 350.015625 2.710938 356.421875 2.710938 Z M 356.421875 2.710938 " clip-rule="nonzero"/></clipPath></defs><g fill="#000000" fill-opacity="1"><g transform="translate(0, 104.986582)"><g><path d="M 30.71875 -67.25 C 39.363281 -67.25 47.15625 -64.957031 54.09375 -60.375 L 49.40625 -50.46875 C 42.601562 -54.59375 36.085938 -56.65625 29.859375 -56.65625 C 26.484375 -56.65625 23.828125 -56.050781 21.890625 -54.84375 C 19.953125 -53.632812 18.984375 -51.914062 18.984375 -49.6875 C 18.984375 -47.46875 19.875 -45.578125 21.65625 -44.015625 C 23.4375 -42.460938 25.660156 -41.316406 28.328125 -40.578125 C 31.003906 -39.847656 33.898438 -38.925781 37.015625 -37.8125 C 40.128906 -36.707031 43.019531 -35.535156 45.6875 -34.296875 C 48.363281 -33.054688 50.570312 -31.113281 52.3125 -28.46875 C 54.0625 -25.832031 54.9375 -22.640625 54.9375 -18.890625 C 54.9375 -13.035156 52.597656 -8.359375 47.921875 -4.859375 C 43.253906 -1.367188 37.203125 0.375 29.765625 0.375 C 24.671875 0.375 19.738281 -0.578125 14.96875 -2.484375 C 10.207031 -4.390625 6.046875 -6.960938 2.484375 -10.203125 L 7.34375 -19.9375 C 10.71875 -16.820312 14.421875 -14.421875 18.453125 -12.734375 C 22.492188 -11.046875 26.328125 -10.203125 29.953125 -10.203125 C 33.890625 -10.203125 36.957031 -10.914062 39.15625 -12.34375 C 41.351562 -13.78125 42.453125 -15.769531 42.453125 -18.3125 C 42.453125 -20.601562 41.5625 -22.523438 39.78125 -24.078125 C 38 -25.640625 35.769531 -26.785156 33.09375 -27.515625 C 30.425781 -28.242188 27.535156 -29.132812 24.421875 -30.1875 C 21.304688 -31.238281 18.410156 -32.351562 15.734375 -33.53125 C 13.066406 -34.707031 10.84375 -36.597656 9.0625 -39.203125 C 7.28125 -41.804688 6.390625 -44.957031 6.390625 -48.65625 C 6.390625 -54.3125 8.613281 -58.820312 13.0625 -62.1875 C 17.519531 -65.5625 23.40625 -67.25 30.71875 -67.25 Z M 30.71875 -67.25 "/></g></g></g><g fill="#000000" fill-opacity="1"><g transform="translate(53.892799, 104.986582)"><g><path d="M 29 -51.125 C 37.707031 -51.125 44.015625 -48.5 47.921875 -43.25 C 51.835938 -38.007812 53.445312 -30.648438 52.75 -21.171875 L 14.40625 -21.171875 C 15.289062 -17.234375 17.132812 -14.132812 19.9375 -11.875 C 22.738281 -9.613281 26.140625 -8.484375 30.140625 -8.484375 C 35.867188 -8.484375 40.640625 -10.457031 44.453125 -14.40625 L 50.265625 -8.203125 C 45.054688 -2.484375 38.0625 0.375 29.28125 0.375 C 21.457031 0.375 15.175781 -1.988281 10.4375 -6.71875 C 5.707031 -11.457031 3.34375 -17.640625 3.34375 -25.265625 C 3.34375 -32.898438 5.722656 -39.101562 10.484375 -43.875 C 15.253906 -48.644531 21.425781 -51.0625 29 -51.125 Z M 14.21875 -29.1875 L 43.21875 -29.1875 C 43.019531 -33.257812 41.648438 -36.472656 39.109375 -38.828125 C 36.566406 -41.179688 33.226562 -42.359375 29.09375 -42.359375 C 25.082031 -42.359375 21.757812 -41.179688 19.125 -38.828125 C 16.488281 -36.472656 14.851562 -33.257812 14.21875 -29.1875 Z M 14.21875 -29.1875 "/></g></g></g><g fill="#000000" fill-opacity="1"><g transform="translate(104.542499, 104.986582)"><g><path d="M 28.90625 -51.125 C 38.0625 -51.125 45.054688 -48.359375 49.890625 -42.828125 L 43.875 -35.765625 C 40.0625 -39.648438 35.226562 -41.5625 29.375 -41.5 C 24.988281 -41.5 21.378906 -39.988281 18.546875 -36.96875 C 15.722656 -33.945312 14.3125 -30.050781 14.3125 -25.28125 C 14.3125 -20.507812 15.722656 -16.613281 18.546875 -13.59375 C 21.378906 -10.570312 24.988281 -9.0625 29.375 -9.0625 C 35.863281 -9.0625 40.859375 -11.097656 44.359375 -15.171875 L 50.46875 -9.0625 C 45.695312 -2.769531 38.507812 0.375 28.90625 0.375 C 21.332031 0.375 15.175781 -1.988281 10.4375 -6.71875 C 5.707031 -11.457031 3.34375 -17.644531 3.34375 -25.28125 C 3.34375 -32.976562 5.707031 -39.207031 10.4375 -43.96875 C 15.175781 -48.738281 21.332031 -51.125 28.90625 -51.125 Z M 28.90625 -51.125 "/></g></g></g><g fill="#000000" fill-opacity="1"><g transform="translate(152.902942, 104.986582)"><g><path d="M 54.1875 -50.75 L 54.1875 0 L 43.21875 0 L 43.21875 -9.921875 C 39.90625 -3.179688 33.863281 0.25 25.09375 0.375 C 19.300781 0.375 14.75 -1.367188 11.4375 -4.859375 C 8.132812 -8.359375 6.484375 -13.128906 6.484375 -19.171875 L 6.484375 -50.75 L 17.453125 -50.75 L 17.453125 -22.21875 C 17.453125 -18.40625 18.5 -15.398438 20.59375 -13.203125 C 22.695312 -11.015625 25.59375 -9.921875 29.28125 -9.921875 C 33.539062 -9.984375 36.925781 -11.492188 39.4375 -14.453125 C 41.957031 -17.410156 43.21875 -21.175781 43.21875 -25.75 L 43.21875 -50.75 Z M 54.1875 -50.75 "/></g></g></g><g fill="#000000" fill-opacity="1"><g transform="translate(209.752695, 104.986582)"><g><path d="M 19.078125 -50.75 L 19.078125 -40.640625 C 22.578125 -47.628906 28.425781 -51.125 36.625 -51.125 L 36.625 -40.640625 C 31.601562 -40.890625 27.535156 -39.710938 24.421875 -37.109375 C 21.304688 -34.503906 19.523438 -30.972656 19.078125 -26.515625 L 19.078125 0 L 8.109375 0 L 8.109375 -50.75 Z M 19.078125 -50.75 "/></g></g></g><g fill="#000000" fill-opacity="1"><g transform="translate(241.897616, 104.986582)"><g><path d="M 29 -51.125 C 37.707031 -51.125 44.015625 -48.5 47.921875 -43.25 C 51.835938 -38.007812 53.445312 -30.648438 52.75 -21.171875 L 14.40625 -21.171875 C 15.289062 -17.234375 17.132812 -14.132812 19.9375 -11.875 C 22.738281 -9.613281 26.140625 -8.484375 30.140625 -8.484375 C 35.867188 -8.484375 40.640625 -10.457031 44.453125 -14.40625 L 50.265625 -8.203125 C 45.054688 -2.484375 38.0625 0.375 29.28125 0.375 C 21.457031 0.375 15.175781 -1.988281 10.4375 -6.71875 C 5.707031 -11.457031 3.34375 -17.640625 3.34375 -25.265625 C 3.34375 -32.898438 5.722656 -39.101562 10.484375 -43.875 C 15.253906 -48.644531 21.425781 -51.0625 29 -51.125 Z M 14.21875 -29.1875 L 43.21875 -29.1875 C 43.019531 -33.257812 41.648438 -36.472656 39.109375 -38.828125 C 36.566406 -41.179688 33.226562 -42.359375 29.09375 -42.359375 C 25.082031 -42.359375 21.757812 -41.179688 19.125 -38.828125 C 16.488281 -36.472656 14.851562 -33.257812 14.21875 -29.1875 Z M 14.21875 -29.1875 "/></g></g></g><g clip-path="url(#9bc3847c70)"><g clip-path="url(#e908296b87)"><path fill="#000000" d="M 277.8125 2.710938 L 795.128906 2.710938 L 795.128906 147.289062 L 277.8125 147.289062 Z M 277.8125 2.710938 " fill-opacity="1" fill-rule="nonzero"/></g></g><g fill="#ffffff" fill-opacity="1"><g transform="translate(331.857904, 104.986582)"><g><path d="M 38.34375 -67.0625 C 43.050781 -67.0625 47.644531 -66.15625 52.125 -64.34375 C 56.613281 -62.53125 60.476562 -60 63.71875 -56.75 L 57.140625 -48.546875 C 54.722656 -51.160156 51.859375 -53.226562 48.546875 -54.75 C 45.242188 -56.28125 41.90625 -57.046875 38.53125 -57.046875 C 31.851562 -57.046875 26.207031 -54.769531 21.59375 -50.21875 C 16.988281 -45.675781 14.6875 -40.128906 14.6875 -33.578125 C 14.6875 -26.960938 16.988281 -21.378906 21.59375 -16.828125 C 26.207031 -12.285156 31.851562 -10.015625 38.53125 -10.015625 C 45.46875 -10.015625 51.671875 -12.65625 57.140625 -17.9375 L 63.8125 -10.5 C 60.382812 -7.125 56.378906 -4.445312 51.796875 -2.46875 C 47.210938 -0.5 42.601562 0.484375 37.96875 0.484375 C 28.175781 0.484375 19.941406 -2.773438 13.265625 -9.296875 C 6.585938 -15.816406 3.25 -23.878906 3.25 -33.484375 C 3.25 -42.953125 6.632812 -50.914062 13.40625 -57.375 C 20.175781 -63.832031 28.488281 -67.0625 38.34375 -67.0625 Z M 38.34375 -67.0625 "/></g></g></g><g fill="#ffffff" fill-opacity="1"><g transform="translate(392.904622, 104.986582)"><g><path d="M 29.859375 -51.125 C 37.679688 -51.125 44.039062 -48.753906 48.9375 -44.015625 C 53.832031 -39.285156 56.28125 -33.070312 56.28125 -25.375 C 56.28125 -17.738281 53.832031 -11.535156 48.9375 -6.765625 C 44.039062 -2.003906 37.679688 0.375 29.859375 0.375 C 21.972656 0.375 15.582031 -2.003906 10.6875 -6.765625 C 5.789062 -11.535156 3.34375 -17.738281 3.34375 -25.375 C 3.34375 -33.070312 5.789062 -39.285156 10.6875 -44.015625 C 15.582031 -48.753906 21.972656 -51.125 29.859375 -51.125 Z M 29.859375 -41.6875 C 25.273438 -41.6875 21.535156 -40.160156 18.640625 -37.109375 C 15.753906 -34.054688 14.3125 -30.113281 14.3125 -25.28125 C 14.3125 -20.382812 15.753906 -16.410156 18.640625 -13.359375 C 21.535156 -10.304688 25.269531 -8.78125 29.84375 -8.78125 C 34.425781 -8.78125 38.148438 -10.304688 41.015625 -13.359375 C 43.878906 -16.410156 45.3125 -20.382812 45.3125 -25.28125 C 45.3125 -30.113281 43.863281 -34.054688 40.96875 -37.109375 C 38.070312 -40.160156 34.367188 -41.6875 29.859375 -41.6875 Z M 29.859375 -41.6875 "/></g></g></g><g fill="#ffffff" fill-opacity="1"><g transform="translate(447.08359, 104.986582)"><g><path d="M 37.78125 -51.125 C 43.6875 -51.125 48.304688 -49.390625 51.640625 -45.921875 C 54.984375 -42.460938 56.65625 -37.679688 56.65625 -31.578125 L 56.65625 0 L 45.6875 0 L 45.6875 -28.515625 C 45.6875 -32.335938 44.601562 -35.34375 42.4375 -37.53125 C 40.28125 -39.726562 37.296875 -40.828125 33.484375 -40.828125 C 29.410156 -40.765625 26.085938 -39.457031 23.515625 -36.90625 C 20.941406 -34.363281 19.460938 -31.0625 19.078125 -27 L 19.078125 0 L 8.109375 0 L 8.109375 -50.75 L 19.078125 -50.75 L 19.078125 -41.015625 C 22.515625 -47.753906 28.75 -51.125 37.78125 -51.125 Z M 37.78125 -51.125 "/></g></g></g><g fill="#ffffff" fill-opacity="1"><g transform="translate(504.887209, 104.986582)"><g><path d="M 37.78125 -51.125 C 43.6875 -51.125 48.304688 -49.390625 51.640625 -45.921875 C 54.984375 -42.460938 56.65625 -37.679688 56.65625 -31.578125 L 56.65625 0 L 45.6875 0 L 45.6875 -28.515625 C 45.6875 -32.335938 44.601562 -35.34375 42.4375 -37.53125 C 40.28125 -39.726562 37.296875 -40.828125 33.484375 -40.828125 C 29.410156 -40.765625 26.085938 -39.457031 23.515625 -36.90625 C 20.941406 -34.363281 19.460938 -31.0625 19.078125 -27 L 19.078125 0 L 8.109375 0 L 8.109375 -50.75 L 19.078125 -50.75 L 19.078125 -41.015625 C 22.515625 -47.753906 28.75 -51.125 37.78125 -51.125 Z M 37.78125 -51.125 "/></g></g></g><g fill="#ffffff" fill-opacity="1"><g transform="translate(562.690828, 104.986582)"><g><path d="M 29 -51.125 C 37.707031 -51.125 44.015625 -48.5 47.921875 -43.25 C 51.835938 -38.007812 53.445312 -30.648438 52.75 -21.171875 L 14.40625 -21.171875 C 15.289062 -17.234375 17.132812 -14.132812 19.9375 -11.875 C 22.738281 -9.613281 26.140625 -8.484375 30.140625 -8.484375 C 35.867188 -8.484375 40.640625 -10.457031 44.453125 -14.40625 L 50.265625 -8.203125 C 45.054688 -2.484375 38.0625 0.375 29.28125 0.375 C 21.457031 0.375 15.175781 -1.988281 10.4375 -6.71875 C 5.707031 -11.457031 3.34375 -17.640625 3.34375 -25.265625 C 3.34375 -32.898438 5.722656 -39.101562 10.484375 -43.875 C 15.253906 -48.644531 21.425781 -51.0625 29 -51.125 Z M 14.21875 -29.1875 L 43.21875 -29.1875 C 43.019531 -33.257812 41.648438 -36.472656 39.109375 -38.828125 C 36.566406 -41.179688 33.226562 -42.359375 29.09375 -42.359375 C 25.082031 -42.359375 21.757812 -41.179688 19.125 -38.828125 C 16.488281 -36.472656 14.851562 -33.257812 14.21875 -29.1875 Z M 14.21875 -29.1875 "/></g></g></g><g fill="#ffffff" fill-opacity="1"><g transform="translate(613.340528, 104.986582)"><g><path d="M 28.90625 -51.125 C 38.0625 -51.125 45.054688 -48.359375 49.890625 -42.828125 L 43.875 -35.765625 C 40.0625 -39.648438 35.226562 -41.5625 29.375 -41.5 C 24.988281 -41.5 21.378906 -39.988281 18.546875 -36.96875 C 15.722656 -33.945312 14.3125 -30.050781 14.3125 -25.28125 C 14.3125 -20.507812 15.722656 -16.613281 18.546875 -13.59375 C 21.378906 -10.570312 24.988281 -9.0625 29.375 -9.0625 C 35.863281 -9.0625 40.859375 -11.097656 44.359375 -15.171875 L 50.46875 -9.0625 C 45.695312 -2.769531 38.507812 0.375 28.90625 0.375 C 21.332031 0.375 15.175781 -1.988281 10.4375 -6.71875 C 5.707031 -11.457031 3.34375 -17.644531 3.34375 -25.28125 C 3.34375 -32.976562 5.707031 -39.207031 10.4375 -43.96875 C 15.175781 -48.738281 21.332031 -51.125 28.90625 -51.125 Z M 28.90625 -51.125 "/></g></g></g><g fill="#ffffff" fill-opacity="1"><g transform="translate(661.700971, 104.986582)"><g><path d="M 34.046875 -11.640625 L 36.828125 -3.25 C 32.628906 -0.757812 28.460938 0.484375 24.328125 0.484375 C 20.191406 0.484375 16.785156 -0.753906 14.109375 -3.234375 C 11.441406 -5.722656 10.109375 -9.414062 10.109375 -14.3125 L 10.109375 -40.640625 L 2.953125 -40.640625 L 2.953125 -48.84375 L 10.109375 -48.84375 L 10.109375 -62.765625 L 20.984375 -62.765625 L 20.984375 -48.84375 L 35.96875 -48.84375 L 35.96875 -40.640625 L 20.984375 -40.640625 L 20.984375 -16.3125 C 20.984375 -13.769531 21.425781 -11.988281 22.3125 -10.96875 C 23.207031 -9.945312 24.578125 -9.4375 26.421875 -9.4375 C 28.453125 -9.4375 30.992188 -10.171875 34.046875 -11.640625 Z M 34.046875 -11.640625 "/></g></g></g><g fill="#ffffff" fill-opacity="1"><g transform="translate(695.085903, 104.986582)"><g/></g></g><g fill="#ffffff" fill-opacity="1"><g transform="translate(714.258378, 104.986582)"><g><path d="M 6.109375 -9.96875 C 7.253906 -11.144531 8.679688 -11.734375 10.390625 -11.734375 C 12.109375 -11.734375 13.539062 -11.144531 14.6875 -9.96875 C 15.832031 -8.789062 16.40625 -7.3125 16.40625 -5.53125 C 16.40625 -3.6875 15.832031 -2.160156 14.6875 -0.953125 C 13.539062 0.253906 12.109375 0.859375 10.390625 0.859375 C 8.679688 0.859375 7.253906 0.253906 6.109375 -0.953125 C 4.960938 -2.160156 4.390625 -3.6875 4.390625 -5.53125 C 4.390625 -7.3125 4.960938 -8.789062 6.109375 -9.96875 Z M 6.109375 -9.96875 "/></g></g></g></svg>